<svg width="1288" height="1288" viewBox="0 0 1288 1288" fill="none" xmlns="http://www.w3.org/2000/svg">
<path d="M442.085 1004.3C457.734 1023.39 500.047 1069.6 530.938 1101.47M995.065 689.807C1006.77 700.673 1020.15 720.107 1025.38 728.465C1091.44 861.367 1018.06 962.158 973.113 995.941C868.543 1059.49 819.507 1033.22 759.866 1058.63C727.986 1072.21 691.679 1100.52 677.284 1124.45C642.161 1175.44 586.689 1151.27 563.344 1132.81C551.42 1122.92 546.127 1117.14 530.938 1101.47M530.938 1101.47C512 1081.66 514.213 1084 487.5 1055.39M385.637 907.131C369.957 865.686 338.807 766.288 339.643 700.255C340.688 617.714 313.51 497.559 259.153 442.183C204.795 386.807 190.161 371.135 184.934 364.866C180.968 360.109 161.356 349.337 139.338 352.176C124.402 354.101 110.526 362.181 95.4689 361.911C69.4629 361.445 38.6134 350.156 35.4519 308.445C30.2253 239.487 72.0385 234.262 73.0838 234.262C74.1291 234.262 104.444 225.904 120.124 238.442C135.804 250.98 136.849 236.352 133.713 232.173C130.577 227.994 109.67 194.559 135.804 154.856C159.847 118.327 234.325 129.557 245.27 173.897C247.24 181.879 247.774 190.282 247.715 198.503C247.641 208.856 245.738 224.335 239.291 243.666C226.747 281.28 311.419 359.642 326.054 370.09C340.688 380.538 384.592 431.735 477.626 442.183C570.661 452.631 751.503 448.452 910.393 604.131M336.507 899.817L321.872 847.576C250.093 896.682 98.3808 1004.09 65.7665 1040.87C24.9986 1086.84 13.5 1131.77 118.033 1101.47C222.566 1071.17 862.308 776.527 1207.27 482.931C1251.17 442.879 1302.39 375.732 1156.05 427.555C1009.7 479.379 920.149 520.893 893.668 535.172L933.39 566.517C989.49 542.486 1077.65 516.366 981.475 604.131C861.263 713.838 418.757 935.716 339.643 957.282C282.15 972.955 249.745 977.134 336.507 899.817Z" stroke="#7D1E11" stroke-width="21" stroke-linecap="round"/>
<path d="M543.722 843.709L514.486 857.294C609.713 635.758 814.507 618.69 905 637.848L878.896 654.568C674.242 647.88 570.174 777.876 543.722 843.709Z" fill="#7D1E11"/>
<path d="M498.824 954.478L521.795 944.028C516.133 982.023 515.188 1068.81 542.924 1101.86L546.855 1106C545.485 1104.74 544.175 1103.36 542.924 1101.86L506.133 1063.16C500.564 1049.57 491.306 1008.82 498.824 954.478Z" fill="#7D1E11"/>
<path d="M514.486 857.294L543.722 843.709C570.174 777.876 674.242 647.88 878.896 654.568L905 637.848C814.507 618.69 609.713 635.758 514.486 857.294ZM498.824 954.478L521.795 944.028C515.878 983.737 515.112 1076.74 546.855 1106L506.133 1063.16C500.564 1049.57 491.306 1008.82 498.824 954.478Z" stroke="#7D1E11"/>
<path d="M972.302 683.836L990.082 699.513L1011 691.152L1001.5 681L990.082 670.249L972.302 683.836Z" fill="#7D1E11"/>
<path d="M419.02 995.285L458 1038.5L474.452 1026.64L439.938 984.834L419.02 995.285Z" fill="#7D1E11"/>
<path d="M379.275 923.171L373 902.268L388.5 884L399.148 913.765L379.275 923.171Z" fill="#7D1E11"/>
<path d="M916.869 628.444L902.226 610.677L895.5 576L918 596.5L933.603 614.857L916.869 628.444Z" fill="#7D1E11"/>
<path d="M972.302 683.836L990.082 699.513L1011 691.152L1001.5 681L990.082 670.249L972.302 683.836Z" stroke="#7D1E11"/>
<path d="M419.02 995.285L458 1038.5L474.452 1026.64L439.938 984.834L419.02 995.285Z" stroke="#7D1E11"/>
<path d="M379.275 923.171L373 902.268L388.5 884L399.148 913.765L379.275 923.171Z" stroke="#7D1E11"/>
<path d="M916.869 628.444L902.226 610.677L895.5 576L918 596.5L933.603 614.857L916.869 628.444Z" stroke="#7D1E11"/>
<path d="M901.899 786.201C909.605 792.695 912.991 803.938 911.13 817.881C909.279 831.757 902.259 847.564 890.27 861.793C878.28 876.022 863.892 885.621 850.532 889.799C837.106 893.997 825.452 892.567 817.745 886.074C810.039 879.58 806.653 868.337 808.514 854.393C810.365 840.518 817.384 824.711 829.374 810.482C841.364 796.252 855.752 786.654 869.112 782.476C882.538 778.278 894.192 779.708 901.899 786.201Z" stroke="#7D1E11" stroke-width="10"/>
<path d="M309 427C460.96 635.066 350.92 597.426 440 886" stroke="#7D1E11" stroke-width="10" stroke-linecap="round"/>
<path d="M233 418C237.867 398.821 259.28 358.369 306 350" stroke="#7D1E11" stroke-width="11"/>
<path d="M131.792 1051.12C139.827 1063.85 194.312 1040.5 220.55 1027.23C226.04 1024.18 236.014 1016.48 231.997 1010.11C227.979 1003.75 215.995 1008.27 210.506 1011.32C206.97 1013.55 199.006 1016.6 195.435 1010.94C192.31 1005.99 198.228 999.703 201.578 997.176C206.881 993.828 216.372 985.364 211.908 978.293C207.444 971.221 196.465 977.328 191.533 981.266C168.271 999.247 123.756 1038.39 131.792 1051.12Z" fill="#7D1E11" stroke="#7D1E11"/>
<path d="M1165.69 469.605C1158.51 456.376 1102.61 476.099 1075.56 487.613C1069.88 490.3 1059.42 497.326 1063.01 503.94C1066.6 510.555 1078.85 506.836 1084.53 504.15C1088.21 502.155 1096.36 499.635 1099.55 505.514C1102.34 510.659 1096.02 516.547 1092.51 518.849C1087 521.841 1076.97 529.663 1080.96 537.013C1084.95 544.362 1096.31 538.99 1101.49 535.385C1125.88 518.97 1172.87 482.834 1165.69 469.605Z" fill="#7D1E11" stroke="#7D1E11"/>
</svg>
